<?xml version="1.0" encoding="UTF-8"?>
<svg id="Layer_2" data-name="Layer 2" xmlns="http://www.w3.org/2000/svg" xmlns:xlink="http://www.w3.org/1999/xlink" viewBox="0 0 854.62 256.78">
  <defs>
    <style>
      .cls-1 {
        fill: url(#linear-gradient-2);
      }

      .cls-2 {
        fill: #00495f;
      }

      .cls-3 {
        fill: url(#linear-gradient);
      }
    </style>
    <linearGradient id="linear-gradient" x1="751.61" y1="72.47" x2="734.28" y2="273.14" gradientUnits="userSpaceOnUse">
      <stop offset="0" stop-color="#50be58"/>
      <stop offset="1" stop-color="#2b6f2c"/>
    </linearGradient>
    <linearGradient id="linear-gradient-2" x1="730.44" y1="-52.11" x2="887.77" y2="302.56" xlink:href="#linear-gradient"/>
  </defs>
  <g id="Layer_1-2" data-name="Layer 1">
    <polygon class="cls-3" points="795.21 65.92 795.21 113.98 724.25 136.31 724.25 242.45 702.21 242.45 702.21 98.23 795.21 65.92"/>
    <polygon class="cls-1" points="854.62 79.28 854.62 242.45 795.21 242.45 795.21 65.92 854.62 79.28"/>
    <polygon class="cls-2" points="795.21 48.72 795.21 0 702.21 38.2 656.86 54.62 656.86 242.45 688.35 242.45 688.35 90.83 795.21 48.72"/>
    <polygon class="cls-2" points="854.62 18.09 854.62 62.99 795.21 48.72 795.21 0 854.62 18.09"/>
    <path class="cls-2" d="M771.32,160.56l-8.48,9.57c-.08.09-.09.19-.03.29.17.29.4.56.69.82.08.07.2.07.27,0,5.12-4.23,10.9-5.62,17.36-4.19.22.05.23.12.02.21l-15.89,6.65c-.22.09-.28.24-.19.46l.24.56c.07.17.2.24.38.2,5.35-1.19,10.96-1.93,16.17-.8,2.63.57,5.08,1.67,7.36,3.31.15.11.13.16-.05.16h-20.72s-.05.02-.05.05v.09s.01.04.04.04c3.3.44,6.61,1.22,9.93,2.35,2.57.88,4.81,2.09,6.7,3.62,2.36,1.91,4.01,4.34,4.97,7.31.04.11,0,.13-.09.06-4.94-3.52-10.29-5.98-16.05-7.4-.37-.09-.39-.04-.06.15,4.07,2.37,7.85,5.93,9.13,10.56.67,2.43.72,5,.16,7.73-.01.06-.07.11-.14.1-.04,0-.08-.04-.09-.07-1.14-2.69-2.52-5.17-4.13-7.42-1.69-2.36-3.74-4.29-6.16-5.78-.29-.18-.36-.12-.19.18,1.47,2.68,2.54,5.79,2.6,8.74.07,3.23-.83,6.3-2.72,9.19-.02.02-.05.02-.07,0-.01,0-.02-.02-.02-.04-.39-7.59-2.78-14.45-7.17-20.59-1.39-1.95-2.24-3.07-2.53-3.36-.08-.08-.15-.07-.2.02-.57.9-.85,1.61-.84,2.12.26,11.68.32,18.88,1.1,28.29.5,6.05,1.44,12,2.81,17.85.51,2.17,2.41,7.23,3.89,10.83-2.18,0-19.75.01-19.81.01,2.15-5.47,3.69-10.86,4.74-16.6.93-5.1,1.56-10.26,1.88-15.48.56-8.98.59-18.3.87-26.77,0-.05-.04-.09-.09-.1-.02,0-.04,0-.06.02-1.3.92-2.39,1.96-3.28,3.13-3.01,3.96-5.08,8.55-6.22,13.77-.57,2.61-.72,5.17-.46,7.67.03.29-.03.31-.19.07-3.98-6.1-4.18-12.36-.61-18.8.03-.06.02-.13-.04-.17-.04-.02-.09-.02-.13,0-4.66,2.98-7.76,7.33-10.19,12.44-.12.25-.22.24-.29-.03-1.89-7.54,2.83-13.42,8.72-17.28.35-.23.32-.3-.09-.21-5.64,1.22-10.87,4.07-15.62,7.59-.19.14-.27.1-.22-.14.39-1.97,1.26-3.77,2.61-5.4,2.57-3.12,6.53-4.7,10.4-5.84,3.08-.9,6.14-1.72,9.17-2.46.05,0,.06-.03.05-.07,0,0,0-.02-.01-.03-.01-.02-.03-.03-.05-.03h-20.74c-.34,0-.36-.1-.08-.29,4.12-2.72,8.74-3.96,13.86-3.7,3.02.15,6.06.63,9.14,1.44.52.14.82,0,1.03-.38.05-.09.03-.16-.06-.21-4.26-2.4-7.07-3.85-8.43-4.36-2.91-1.08-5.66-2.04-8.26-2.88-.27-.09-.27-.16.01-.22,5.08-1.12,10.42-.69,14.97,1.94.9.52,1.93,1.21,3.1,2.08.08.06.19.07.28.01.24-.15.45-.34.62-.56.08-.1.08-.19,0-.28l-8.44-9.54c-.11-.12-.08-.17.08-.16,3.76.34,6.83,1.97,9.19,4.89.9,1.12,1.75,2.47,2.55,4.08.03.06.1.08.16.05.02-.01.05-.03.06-.06,1.33-2.92,3.45-5.7,6.2-7.27,1.2-.68,2.54-1.16,4.03-1.44.51-.1,1.02-.21,1.52-.34h.21Z"/>
    <g>
      <path class="cls-2" d="M19,85.14c2.12,0,3.92-.75,5.39-2.24,1.42-1.51,2.14-3.31,2.14-5.39s-.72-3.97-2.14-5.44c-1.46-1.49-3.26-2.24-5.39-2.24s-3.8.75-5.27,2.24c-1.43,1.51-2.14,3.32-2.14,5.44s.7,3.92,2.14,5.39c1.43,1.49,3.19,2.24,5.27,2.24Z"/>
      <path class="cls-2" d="M30.15,146.52h127.69v-.06c8.33-.42,13.55-3.32,15.64-8.72,4.68,5.85,13.08,8.78,25.2,8.78h32.49v-.06c8.3-.42,13.51-3.34,15.6-8.72,4.68,5.85,13.08,8.78,25.19,8.78h57.59v-79.28h-14.81v67.58h-19.71v-16.74c0-17.24-8.47-25.86-25.42-25.86-9.29,0-16.61,2.77-21.95,8.3-4.83,5.05-7.24,11.37-7.24,18.98,0,5.68-1.16,9.7-3.47,12.09-2.08,2.15-5.33,3.23-9.72,3.23h-5.49v-16.74c0-17.24-8.47-25.86-25.42-25.86-9.29,0-16.61,2.77-21.95,8.3-4.83,5.05-7.24,11.37-7.24,18.98,0,5.68-1.16,9.7-3.47,12.09-2.08,2.15-5.31,3.23-9.7,3.23h-7.36v-67.58h-14.82v67.58h-21.35c-1-19.1-9.26-32.18-24.82-39.25l27.45-16.52v-14.71l-44.58,27.88v10.87c17.71,4.14,26.9,14.71,27.56,31.73h-42.7v-38.69c-6.85-2.61-14.68-3.91-23.5-3.91-9.78,0-17.33,2.85-22.67,8.56-4.76,5.12-7.14,11.68-7.14,19.65,0,17.39,10.05,26.08,30.15,26.08ZM258.63,108.21c2.46-2.85,5.75-4.29,9.88-4.29,8.02,0,12.03,5.33,12.03,15.98v14.93h-8.58c-11.23,0-16.84-5.25-16.84-15.75,0-4.48,1.17-8.09,3.51-10.87ZM185.33,108.21c2.46-2.85,5.75-4.29,9.88-4.29,8.02,0,12.03,5.33,12.03,15.98v14.93h-8.56c-11.24,0-16.86-5.25-16.86-15.75,0-4.48,1.17-8.09,3.51-10.87ZM18.4,108.21c2.41-2.85,5.69-4.29,9.82-4.29s7.86.67,10.71,2.03v28.87h-7.2c-11.27,0-16.9-5.25-16.9-15.75,0-4.48,1.19-8.09,3.57-10.87Z"/>
      <path class="cls-2" d="M37.67,85.14c2.08,0,3.83-.75,5.27-2.24,1.42-1.51,2.14-3.31,2.14-5.39s-.72-3.97-2.14-5.44c-1.43-1.49-3.19-2.24-5.27-2.24s-3.82.75-5.28,2.24c-1.42,1.51-2.14,3.32-2.14,5.44s.72,3.92,2.14,5.39c1.43,1.49,3.19,2.24,5.28,2.24Z"/>
      <rect class="cls-2" x="348.94" y="67.24" width="14.81" height="79.28"/>
      <path class="cls-2" d="M454.61,146.74v-.22h10.98v-.06c8.37-.41,13.61-3.32,15.7-8.72,4.68,5.85,13.08,8.78,25.19,8.78h36.24c7.68,0,12.69-2.62,14.99-7.84,1.95,5.81,6.92,8.72,14.94,8.72,8.63,0,14.28-2.87,16.96-8.62,1.61,3,4.01,5.08,7.19,6.21,2.97,1.02,7.51,1.54,13.61,1.54h18.56c1.14-7.98,1.71-16.71,1.71-26.18,0-10.68-1.21-21.06-3.63-31.13l-14.49,1.98c2.2,9.73,3.29,19.79,3.29,30.13,0,4.8-.28,9.31-.82,13.51h-2.91c-5.27,0-8.78-.67-10.54-2.03-1.84-1.39-2.75-4.27-2.75-8.66v-28.23h-14.27v25.42c0,9.59-3,14.39-9,14.39-3.19,0-5.31-1.16-6.38-3.45-.91-1.95-1.36-5.62-1.36-11.03v-20.81h-14.82v20.47c0,5.39-.79,9.09-2.37,11.09-1.46,1.9-4.05,2.85-7.79,2.85h-13.29v-16.74c0-17.24-8.47-25.86-25.42-25.86-9.29,0-16.61,2.77-21.95,8.3-4.83,5.05-7.24,11.37-7.24,18.98,0,5.68-1.16,9.7-3.47,12.09-2.08,2.15-5.33,3.23-9.72,3.23h-7.13v-38.69c-6.85-2.61-14.68-3.91-23.5-3.91-9.78,0-17.33,2.85-22.67,8.56-4.76,5.12-7.14,11.68-7.14,19.65,0,17.39,10.05,26.08,30.15,26.08h8.78v1.7c0,8.99-6.87,15.82-17.42,16.71-.07,0-.15,0-.22.01-7.32.59-13.48,3.06-17.6,6.48-.78.63-1.48,1.3-2.12,2.02-2.87,3.25-4.32,7.32-4.32,12.18,0,7.92,4.6,13.76,13.77,17.52,5.56,2.3,8.72,3.67,9.47,4.11,2.87,1.74,4.32,3.97,4.32,6.67,0,5.69-3.66,8.53-10.99,8.53-5.02,0-9.76-.94-14.24-2.8l-1.38,12.12c4.38,1.17,9.44,1.76,15.15,1.76,7.48,0,13.58-2.02,18.32-6.07,4.64-3.94,6.95-8.97,6.95-15.09,0-7.67-4.65-13.49-13.96-17.47-5.81-2.46-9.03-3.88-9.66-4.26-2.9-1.74-4.35-3.86-4.35-6.4,0-5.24,3.01-8.71,10.18-8.71h.06c4.18,0,8.35-.72,12.26-2.21,9.05-3.45,11.68-6.57,14.46-9.29l-.02-.03c3.79-4.57,5.72-10.31,5.72-17.27ZM493.15,108.21c2.46-2.85,5.75-4.29,9.88-4.29,8.02,0,12.03,5.33,12.03,15.98v14.93h-8.58c-11.23,0-16.84-5.25-16.84-15.75,0-4.48,1.17-8.09,3.51-10.87ZM433.03,134.83c-11.27,0-16.9-5.25-16.9-15.75,0-4.48,1.19-8.09,3.57-10.87,2.41-2.85,5.69-4.29,9.82-4.29s7.86.67,10.71,2.03v28.87h-7.2Z"/>
      <polygon class="cls-2" points="50.8 167.02 35.31 167.02 14.17 196.66 14.17 167.02 1.57 167.02 1.57 232.44 14.17 232.44 14.17 201 35.23 232.44 51.79 232.44 26.75 198.59 50.8 167.02"/>
      <rect class="cls-2" x="58.8" y="184.25" width="12.4" height="48.19"/>
      <path class="cls-2" d="M65.01,162.05c-2.15,0-3.97.75-5.44,2.22s-2.22,3.26-2.22,5.36.73,3.85,2.22,5.3c1.48,1.45,3.29,2.18,5.44,2.18s3.94-.75,5.49-2.22c1.51-1.45,2.27-3.21,2.27-5.25s-.76-3.92-2.27-5.4c-1.52-1.45-3.35-2.18-5.49-2.18Z"/>
      <path class="cls-2" d="M112.1,183.3c-7.64,0-13.1,3.19-16.38,9.57h-.15c.48-2.34.72-5.21.72-8.62h-11.74v48.19h12.4v-23.28c0-4.23,1.08-7.86,3.26-10.89,2.18-3.06,4.81-4.6,7.9-4.6,4.01,0,6.01,2.65,6.01,7.95v30.82h12.31v-33.85c0-10.19-4.77-15.29-14.34-15.29Z"/>
      <path class="cls-2" d="M166.63,223.45l-7.42-.34c-2.88-.1-4.83-.34-5.87-.72-1.08-.41-1.61-1.16-1.61-2.27,0-1.39.76-2.43,2.31-3.12,1.2.28,2.46.42,3.79.42,6.69,0,11.85-1.61,15.48-4.83,3.44-3.06,5.15-7.24,5.15-12.54,0-2.56-.8-4.6-2.41-6.12h6.59v-9.7h-16.38c-2.75-.69-5.37-1.04-7.86-1.04-6.73,0-12.02,1.81-15.86,5.44-3.57,3.38-5.36,7.64-5.36,12.78,0,6.19,2.39,10.58,7.16,13.17-3.82,1.67-5.74,4.54-5.74,8.61,0,3.44,1.6,5.91,4.79,7.39-4.99,2.68-7.48,6.63-7.48,11.84,0,4.64,1.84,8.2,5.55,10.7,3.59,2.43,8.62,3.64,15.09,3.64,7.83,0,14.24-1.92,19.23-5.74,4.83-3.63,7.24-8.11,7.24-13.43,0-9.06-5.47-13.79-16.39-14.15ZM151.35,194.62c1.64-1.61,3.83-2.41,6.57-2.41,5.81,0,8.71,2.84,8.71,8.52s-2.9,8.24-8.71,8.24-8.94-2.78-8.94-8.34c0-2.46.79-4.46,2.37-6ZM167.58,244.94c-2.21,1.55-5.27,2.31-9.18,2.31-3.13,0-5.62-.63-7.49-1.89-1.86-1.29-2.78-3.04-2.78-5.25,0-2.78,1.48-5.24,4.45-7.38l10.55.28c5.05.19,7.58,2.25,7.58,6.21,0,2.36-1.05,4.27-3.13,5.72Z"/>
      <path class="cls-2" d="M219.99,183.78c-1.89-.25-3.94-.38-6.1-.38-7.9,0-14.14,2.56-18.75,7.67-4.52,4.99-6.78,11.61-6.78,19.83,0,7.07,1.45,12.57,4.36,16.48,3.06,4.1,7.46,6.16,13.2,6.16,7.26,0,12.32-3.06,15.21-9.15h.18c-.37,2.62-.56,5.3-.56,8.05h11.55v-70.77h-12.31v22.11ZM219.99,207.44c0,4.33-.92,7.99-2.75,10.99-1.95,3.18-4.49,4.77-7.61,4.77-5.53,0-8.3-4.54-8.3-13.63,0-10.92,4.04-16.38,12.13-16.38,1.95,0,4.13.25,6.53.75v13.49Z"/>
      <path class="cls-2" d="M266.85,183.3c-7.26,0-13.19,2.44-17.8,7.3-4.55,4.83-6.82,11.01-6.82,18.56,0,16.16,7.54,24.24,22.58,24.24,7.17,0,13.07-2.43,17.71-7.29,4.61-4.9,6.91-11.11,6.91-18.66,0-8.08-2.03-14.18-6.1-18.32-3.88-3.88-9.37-5.82-16.48-5.82ZM273.52,219.14c-1.95,2.46-4.52,3.69-7.71,3.69-7.2,0-10.79-4.96-10.79-14.9,0-4.64,1.13-8.24,3.4-10.8,2.02-2.24,4.55-3.37,7.58-3.37,7.1,0,10.65,4.79,10.65,14.34,0,4.74-1.04,8.42-3.13,11.03Z"/>
      <path class="cls-2" d="M354.67,183.3c-7.42,0-12.66,3.19-15.72,9.57-1.61-6.38-6.04-9.57-13.3-9.57s-12.7,3.22-15.86,9.66l-.09-.09c.37-2.72.56-5.59.56-8.62h-11.74v48.19h12.41v-23.05c0-4.42,1.13-8.18,3.41-11.27,2.17-2.97,4.73-4.45,7.67-4.45,3.78,0,5.68,2.74,5.68,8.24v30.53h12.21v-23.05c0-4.55,1.17-8.36,3.51-11.42,2.18-2.87,4.7-4.3,7.57-4.3,3.82,0,5.74,2.78,5.74,8.33v30.44h12.4v-33.13c0-10.67-4.81-16.01-14.43-16.01Z"/>
      <path class="cls-2" d="M478.69,207.55c0,4.26-1.07,7.89-3.22,10.89-2.17,3.06-4.83,4.58-7.95,4.58-4.01,0-6.01-2.65-6.01-7.95v-30.82h-12.31v33.85c0,10.2,4.79,15.29,14.34,15.29,7.61,0,13.07-3.19,16.38-9.57h.1c-.38,2.02-.57,4.9-.57,8.62h11.65v-48.19h-12.41v23.3Z"/>
      <path class="cls-2" d="M560.59,183.3c-7.41,0-12.66,3.19-15.72,9.57-1.61-6.38-6.04-9.57-13.3-9.57s-12.7,3.22-15.85,9.66l-.1-.09c.38-2.72.57-5.59.57-8.62h-11.74v48.19h12.4v-23.05c0-4.42,1.14-8.18,3.41-11.27,2.18-2.97,4.74-4.45,7.67-4.45,3.79,0,5.68,2.74,5.68,8.24v30.53h12.22v-23.05c0-4.55,1.17-8.36,3.5-11.42,2.18-2.87,4.71-4.3,7.58-4.3,3.82,0,5.72,2.78,5.72,8.33v30.44h12.41v-33.13c0-10.67-4.81-16.01-14.44-16.01Z"/>
      <path class="cls-2" d="M625.77,189.12c-3.88-3.88-9.37-5.82-16.46-5.82s-13.2,2.44-17.8,7.3c-4.55,4.83-6.82,11.01-6.82,18.56,0,16.16,7.52,24.24,22.58,24.24,7.16,0,13.05-2.43,17.69-7.29,4.61-4.9,6.92-11.11,6.92-18.66,0-8.08-2.03-14.18-6.12-18.32ZM615.98,219.14c-1.96,2.46-4.54,3.69-7.71,3.69-7.2,0-10.8-4.96-10.8-14.9,0-4.64,1.14-8.24,3.41-10.8,2.02-2.24,4.55-3.37,7.58-3.37,7.1,0,10.64,4.79,10.64,14.34,0,4.74-1.04,8.42-3.12,11.03Z"/>
    </g>
  </g>
</svg>