<?xml version="1.0" encoding="UTF-8"?>
<svg id="Layer_2" data-name="Layer 2" xmlns="http://www.w3.org/2000/svg" xmlns:xlink="http://www.w3.org/1999/xlink" viewBox="0 0 858.96 247.46">
  <defs>
    <style>
      .cls-1 {
        fill: url(#linear-gradient-2);
      }

      .cls-2 {
        fill: #00495f;
      }

      .cls-3 {
        fill: url(#linear-gradient);
      }
    </style>
    <linearGradient id="linear-gradient" x1="755.96" y1="72.47" x2="738.62" y2="273.14" gradientUnits="userSpaceOnUse">
      <stop offset="0" stop-color="#50be58"/>
      <stop offset="1" stop-color="#2b6f2c"/>
    </linearGradient>
    <linearGradient id="linear-gradient-2" x1="734.78" y1="-52.11" x2="892.11" y2="302.56" xlink:href="#linear-gradient"/>
  </defs>
  <g id="Layer_1-2" data-name="Layer 1">
    <g>
      <g>
        <path class="cls-2" d="M30.24,136.58c-20.16,0-30.24-8.72-30.24-26.17,0-8.01,2.39-14.58,7.16-19.72,5.36-5.73,12.95-8.59,22.75-8.59,8.85,0,16.71,1.3,23.58,3.91v38.84h11.02v11.73H30.24ZM13.77,72.73c-1.43-1.47-2.15-3.27-2.15-5.4s.72-3.95,2.15-5.45c1.47-1.51,3.23-2.26,5.29-2.26s3.93.75,5.4,2.26c1.43,1.47,2.15,3.29,2.15,5.45s-.72,3.89-2.15,5.4c-1.47,1.51-3.27,2.26-5.4,2.26s-3.86-.75-5.29-2.26ZM39.06,95.87c-2.86-1.36-6.45-2.04-10.74-2.04s-7.44,1.43-9.86,4.3c-2.39,2.79-3.58,6.43-3.58,10.91,0,10.54,5.66,15.81,16.97,15.81h7.22v-28.98ZM32.5,72.73c-1.43-1.47-2.15-3.27-2.15-5.4s.72-3.95,2.15-5.45c1.47-1.51,3.23-2.26,5.29-2.26s3.86.75,5.29,2.26c1.43,1.47,2.15,3.29,2.15,5.45s-.72,3.89-2.15,5.4c-1.43,1.51-3.2,2.26-5.29,2.26s-3.86-.75-5.29-2.26Z"/>
        <path class="cls-2" d="M62.86,124.85h33.49c-.66-17.08-9.88-27.69-27.65-31.84v-10.91l44.73-27.98v14.76l-27.54,16.58c15.61,7.09,23.91,20.22,24.9,39.39h9.14v11.73h-57.07v-11.73Z"/>
        <path class="cls-2" d="M118.22,124.85h13.99V57.03h14.87v67.81h11.29v11.73h-40.16v-11.73Z"/>
        <path class="cls-2" d="M199.36,136.58c-12.16,0-20.58-2.94-25.29-8.81-2.28,5.88-8.25,8.81-17.9,8.81h-1.71v-11.73c4.41,0,7.66-1.08,9.75-3.25,2.31-2.39,3.47-6.43,3.47-12.12,0-7.64,2.42-13.99,7.27-19.06,5.36-5.54,12.71-8.32,22.04-8.32,17,0,25.51,8.65,25.51,25.95v16.8h9.48v11.73h-32.61ZM207.96,109.86c0-10.69-4.02-16.03-12.06-16.03-4.15,0-7.46,1.43-9.92,4.3-2.35,2.79-3.53,6.43-3.53,10.91,0,10.54,5.64,15.81,16.91,15.81h8.59v-14.98Z"/>
        <path class="cls-2" d="M272.91,136.58c-12.16,0-20.58-2.94-25.29-8.81-2.28,5.88-8.25,8.81-17.9,8.81h-1.71v-11.73c4.41,0,7.66-1.08,9.75-3.25,2.31-2.39,3.47-6.43,3.47-12.12,0-7.64,2.42-13.99,7.27-19.06,5.36-5.54,12.71-8.32,22.04-8.32,17,0,25.51,8.65,25.51,25.95v16.8h19.78V57.03h14.87v79.55h-57.79ZM281.5,109.86c0-10.69-4.02-16.03-12.06-16.03-4.15,0-7.46,1.43-9.92,4.3-2.35,2.79-3.53,6.43-3.53,10.91,0,10.54,5.64,15.81,16.91,15.81h8.59v-14.98Z"/>
        <path class="cls-2" d="M350.14,57.03h14.87v79.55h-14.87V57.03Z"/>
        <path class="cls-2" d="M403.69,163.52l.94-12.17c5.88,1.29,11.73,1.93,17.57,1.93,13.04,0,19.56-4.99,19.56-14.98v-1.71h-8.81c-20.16,0-30.24-8.72-30.24-26.17,0-8.01,2.39-14.58,7.16-19.72,5.36-5.73,12.95-8.59,22.75-8.59,8.85,0,16.71,1.3,23.58,3.91v38.84h11.02v11.73h-11.02v.22c0,8.37-2.74,15.02-8.21,19.94-6.1,5.51-15.13,8.26-27.1,8.26-5.66,0-11.39-.5-17.19-1.49ZM441.75,95.87c-2.86-1.36-6.45-2.04-10.74-2.04s-7.44,1.43-9.86,4.3c-2.39,2.79-3.58,6.43-3.58,10.91,0,10.54,5.66,15.81,16.97,15.81h7.22v-28.98Z"/>
        <path class="cls-2" d="M508.24,136.58c-12.16,0-20.58-2.94-25.29-8.81-2.28,5.88-8.25,8.81-17.9,8.81h-1.71v-11.73c4.41,0,7.66-1.08,9.75-3.25,2.31-2.39,3.47-6.43,3.47-12.12,0-7.64,2.42-13.99,7.27-19.06,5.36-5.54,12.71-8.32,22.04-8.32,17,0,25.51,8.65,25.51,25.95v16.8h9.47v11.73h-32.61ZM516.84,109.86c0-10.69-4.02-16.03-12.06-16.03-4.15,0-7.46,1.43-9.92,4.3-2.35,2.79-3.53,6.43-3.53,10.91,0,10.54,5.64,15.81,16.91,15.81h8.59v-14.98Z"/>
        <path class="cls-2" d="M539.09,124.85h5.62c3.75,0,6.35-.96,7.82-2.87,1.58-2.02,2.37-5.73,2.37-11.13v-20.55h14.87v20.88c0,5.44.46,9.13,1.38,11.07,1.06,2.31,3.2,3.47,6.39,3.47,6.02,0,9.03-4.81,9.03-14.43v-25.51h14.32v28.32c0,4.41.92,7.31,2.75,8.7,1.76,1.36,5.29,2.04,10.58,2.04h2.92c.55-4.22.83-8.74.83-13.55,0-10.39-1.1-20.47-3.31-30.24l14.54-1.98c2.42,10.1,3.64,20.51,3.64,31.23,0,9.51-.57,18.27-1.71,26.28h-18.62c-6.13,0-10.69-.51-13.66-1.54-3.2-1.14-5.6-3.21-7.22-6.23-2.68,5.77-8.36,8.65-17.02,8.65-8.04,0-13.04-2.92-14.98-8.76-2.31,5.25-7.33,7.88-15.04,7.88h-5.51v-11.73Z"/>
      </g>
      <g>
        <path class="cls-2" d="M32.34,220.31c-4.38,3.74-10.04,5.61-16.97,5.61-5.29,0-9.97-.54-14.03-1.62l1.27-11.23c4.15,1.73,8.55,2.59,13.2,2.59,6.78,0,10.17-2.63,10.17-7.89,0-2.51-1.33-4.57-3.99-6.18-.7-.41-3.63-1.68-8.77-3.81-8.51-3.48-12.76-8.89-12.76-16.22,0-5.5,1.99-9.88,5.96-13.16,4.09-3.39,9.73-5.09,16.93-5.09,3.62,0,7.28.39,10.96,1.18l-1.05,10.22c-3.51-1.14-6.99-1.71-10.44-1.71-6.64,0-9.95,2.43-9.95,7.28,0,2.34,1.34,4.31,4.03,5.92.58.35,3.57,1.67,8.94,3.95,8.62,3.68,12.94,9.08,12.94,16.18,0,5.67-2.15,10.33-6.45,13.99Z"/>
        <path class="cls-2" d="M75.4,224.92c0-3.45.18-6.11.53-7.98h-.09c-3.07,5.91-8.13,8.86-15.17,8.86-8.86,0-13.29-4.72-13.29-14.16v-31.35h11.4v28.55c0,4.91,1.86,7.37,5.57,7.37,2.89,0,5.35-1.42,7.37-4.25,1.99-2.78,2.98-6.14,2.98-10.08v-21.57h11.49v44.64h-10.79Z"/>
        <path class="cls-2" d="M152.45,224.92v-28.2c0-5.14-1.77-7.72-5.31-7.72-2.66,0-5,1.33-7.02,3.99-2.16,2.84-3.24,6.36-3.24,10.57v21.35h-11.31v-28.28c0-5.09-1.75-7.63-5.26-7.63-2.72,0-5.09,1.38-7.1,4.12-2.1,2.87-3.16,6.34-3.16,10.44v21.35h-11.49v-44.64h10.88c0,2.81-.18,5.47-.53,7.98l.09.09c2.92-5.96,7.82-8.95,14.69-8.95s10.83,2.95,12.32,8.86c2.83-5.9,7.69-8.86,14.56-8.86,8.92,0,13.37,4.94,13.37,14.82v30.69h-11.49Z"/>
        <path class="cls-2" d="M210.2,219.04c-4.3,4.5-9.76,6.75-16.4,6.75-13.94,0-20.92-7.48-20.92-22.45,0-6.99,2.1-12.72,6.31-17.19,4.27-4.5,9.76-6.75,16.49-6.75s11.66,1.8,15.26,5.39c3.77,3.83,5.66,9.49,5.66,16.97,0,6.99-2.13,12.75-6.4,17.28ZM194.89,189.09c-2.81,0-5.15,1.04-7.02,3.11-2.1,2.37-3.16,5.7-3.16,10,0,9.21,3.33,13.81,10,13.81,2.95,0,5.33-1.14,7.15-3.42,1.93-2.43,2.89-5.83,2.89-10.22,0-8.86-3.29-13.29-9.87-13.29Z"/>
        <path class="cls-2" d="M253.21,224.92c0-3.45.18-6.11.53-7.98h-.09c-3.07,5.91-8.13,8.86-15.17,8.86-8.86,0-13.29-4.72-13.29-14.16v-31.35h11.4v28.55c0,4.91,1.86,7.37,5.57,7.37,2.89,0,5.35-1.42,7.37-4.25,1.99-2.78,2.98-6.14,2.98-10.08v-21.57h11.49v44.64h-10.79Z"/>
        <path class="cls-2" d="M325.17,224.92l-19.51-29.12v29.12h-11.66v-60.6h11.66v27.45l19.6-27.45h14.34l-22.28,29.25,23.2,31.35h-15.35Z"/>
        <path class="cls-2" d="M357.84,171.6c-1.43,1.38-3.13,2.06-5.09,2.06s-3.67-.67-5.04-2.02c-1.37-1.34-2.06-2.98-2.06-4.91s.69-3.58,2.06-4.96c1.37-1.37,3.05-2.06,5.04-2.06s3.68.67,5.09,2.02c1.4,1.38,2.1,3.04,2.1,5s-.7,3.52-2.1,4.87ZM347.01,224.92v-44.64h11.49v44.64h-11.49Z"/>
        <path class="cls-2" d="M398.27,224.92v-28.55c0-4.91-1.86-7.37-5.57-7.37-2.87,0-5.31,1.42-7.32,4.25-2.02,2.81-3.03,6.17-3.03,10.08v21.57h-11.49v-44.64h10.88c0,3.16-.22,5.82-.66,7.98h.13c3.04-5.9,8.1-8.86,15.17-8.86,8.86,0,13.29,4.72,13.29,14.16v31.35h-11.4Z"/>
        <path class="cls-2" d="M455.36,242.15c-4.62,3.54-10.55,5.31-17.8,5.31-5.99,0-10.66-1.13-13.99-3.38-3.42-2.31-5.13-5.61-5.13-9.91,0-4.82,2.31-8.48,6.93-10.96-2.95-1.37-4.43-3.65-4.43-6.84,0-3.77,1.77-6.43,5.31-7.98-4.41-2.4-6.62-6.46-6.62-12.19,0-4.76,1.65-8.71,4.96-11.84,3.57-3.36,8.46-5.04,14.69-5.04,2.31,0,4.74.32,7.28.96h15.17v8.99h-6.1c1.49,1.4,2.24,3.29,2.24,5.66,0,4.91-1.59,8.79-4.78,11.62-3.36,2.98-8.14,4.47-14.34,4.47-1.23,0-2.4-.13-3.51-.39-1.43.64-2.15,1.61-2.15,2.89,0,1.02.5,1.72,1.49,2.1.96.35,2.78.57,5.44.66l6.88.31c10.11.35,15.17,4.72,15.17,13.11,0,4.94-2.24,9.09-6.71,12.45ZM443.65,225.44l-9.78-.26c-2.75,1.99-4.12,4.27-4.12,6.84,0,2.05.86,3.67,2.59,4.87,1.72,1.17,4.03,1.75,6.93,1.75,3.62,0,6.46-.72,8.51-2.15,1.93-1.34,2.89-3.11,2.89-5.31,0-3.65-2.34-5.57-7.02-5.74ZM438.83,187.65c-2.54,0-4.58.75-6.1,2.24-1.46,1.43-2.19,3.29-2.19,5.57,0,5.15,2.76,7.72,8.29,7.72s8.07-2.54,8.07-7.63-2.69-7.89-8.07-7.89Z"/>
        <path class="cls-2" d="M497.02,224.92c0-2.54.17-5.03.53-7.45h-.17c-2.66,5.64-7.35,8.46-14.08,8.46-5.32,0-9.4-1.9-12.23-5.7-2.69-3.62-4.03-8.71-4.03-15.26,0-7.63,2.09-13.75,6.27-18.37,4.27-4.74,10.06-7.1,17.36-7.1,2.02,0,3.9.12,5.66.35v-20.48h11.4v65.55h-10.7ZM496.31,189.27c-2.22-.47-4.24-.7-6.05-.7-7.48,0-11.23,5.06-11.23,15.17,0,8.42,2.56,12.63,7.67,12.63,2.89,0,5.25-1.48,7.06-4.43,1.7-2.78,2.54-6.17,2.54-10.17v-12.5Z"/>
        <path class="cls-2" d="M554.24,219.04c-4.3,4.5-9.76,6.75-16.4,6.75-13.94,0-20.92-7.48-20.92-22.45,0-6.99,2.1-12.72,6.31-17.19,4.27-4.5,9.76-6.75,16.49-6.75s11.66,1.8,15.26,5.39c3.77,3.83,5.66,9.49,5.66,16.97,0,6.99-2.13,12.75-6.4,17.28ZM538.94,189.09c-2.81,0-5.15,1.04-7.02,3.11-2.11,2.37-3.16,5.7-3.16,10,0,9.21,3.33,13.81,10,13.81,2.95,0,5.33-1.14,7.15-3.42,1.93-2.43,2.89-5.83,2.89-10.22,0-8.86-3.29-13.29-9.87-13.29Z"/>
        <path class="cls-2" d="M622.95,224.92v-28.2c0-5.14-1.77-7.72-5.31-7.72-2.66,0-5,1.33-7.02,3.99-2.16,2.84-3.24,6.36-3.24,10.57v21.35h-11.31v-28.28c0-5.09-1.75-7.63-5.26-7.63-2.72,0-5.09,1.38-7.1,4.12-2.11,2.87-3.16,6.34-3.16,10.44v21.35h-11.49v-44.64h10.88c0,2.81-.18,5.47-.53,7.98l.09.09c2.92-5.96,7.82-8.95,14.69-8.95s10.83,2.95,12.32,8.86c2.83-5.9,7.69-8.86,14.56-8.86,8.92,0,13.37,4.94,13.37,14.82v30.69h-11.49Z"/>
      </g>
    </g>
    <polygon class="cls-3" points="799.55 65.92 799.55 113.98 728.59 136.31 728.59 242.45 706.55 242.45 706.55 98.23 799.55 65.92"/>
    <polygon class="cls-1" points="858.96 79.28 858.96 242.45 799.55 242.45 799.55 65.92 858.96 79.28"/>
    <polygon class="cls-2" points="799.55 48.72 799.55 0 706.55 38.2 661.2 54.62 661.2 242.45 692.69 242.45 692.69 90.83 799.55 48.72"/>
    <polygon class="cls-2" points="858.96 18.09 858.96 62.99 799.55 48.72 799.55 0 858.96 18.09"/>
    <path class="cls-2" d="M775.66,160.56l-8.48,9.57c-.08.09-.09.19-.03.29.17.29.4.56.69.82.08.07.2.07.27,0,5.12-4.23,10.9-5.62,17.36-4.19.22.05.23.12.02.21l-15.89,6.65c-.22.09-.28.24-.19.46l.24.56c.07.17.2.24.38.2,5.35-1.19,10.96-1.93,16.17-.8,2.63.57,5.08,1.67,7.36,3.31.15.11.13.16-.05.16h-20.72s-.05.02-.05.05v.09s.01.04.04.04c3.3.44,6.61,1.22,9.93,2.35,2.57.88,4.81,2.09,6.7,3.62,2.36,1.91,4.01,4.34,4.97,7.31.04.11,0,.13-.09.06-4.94-3.52-10.29-5.98-16.05-7.4-.37-.09-.39-.04-.06.15,4.07,2.37,7.85,5.93,9.13,10.56.67,2.43.72,5,.16,7.73-.01.06-.07.11-.14.1-.04,0-.08-.04-.09-.07-1.14-2.69-2.52-5.17-4.13-7.42-1.69-2.36-3.74-4.29-6.16-5.78-.29-.18-.36-.12-.19.18,1.47,2.68,2.54,5.79,2.6,8.74.07,3.23-.83,6.3-2.72,9.19-.02.02-.05.02-.07,0-.01,0-.02-.02-.02-.04-.39-7.59-2.78-14.45-7.17-20.59-1.39-1.95-2.24-3.07-2.53-3.36-.08-.08-.15-.07-.2.02-.57.9-.85,1.61-.84,2.12.26,11.68.32,18.88,1.1,28.29.5,6.05,1.44,12,2.81,17.85.51,2.17,2.41,7.23,3.89,10.83-2.18,0-19.75.01-19.81.01,2.15-5.47,3.69-10.86,4.74-16.6.93-5.1,1.56-10.26,1.88-15.48.56-8.98.59-18.3.87-26.77,0-.05-.04-.09-.09-.1-.02,0-.04,0-.06.02-1.3.92-2.39,1.96-3.28,3.13-3.01,3.96-5.08,8.55-6.22,13.77-.57,2.61-.72,5.17-.46,7.67.03.29-.03.31-.19.07-3.98-6.1-4.18-12.36-.61-18.8.03-.06.02-.13-.04-.17-.04-.02-.09-.02-.13,0-4.66,2.98-7.76,7.33-10.19,12.44-.12.25-.22.24-.29-.03-1.89-7.54,2.83-13.42,8.72-17.28.35-.23.32-.3-.09-.21-5.64,1.22-10.87,4.07-15.62,7.59-.19.14-.27.1-.22-.14.39-1.97,1.26-3.77,2.61-5.4,2.57-3.12,6.53-4.7,10.4-5.84,3.08-.9,6.14-1.72,9.17-2.46.05,0,.06-.03.05-.07,0,0,0-.02-.01-.03-.01-.02-.03-.03-.05-.03h-20.74c-.34,0-.36-.1-.08-.29,4.12-2.72,8.74-3.96,13.86-3.7,3.02.15,6.06.63,9.14,1.44.52.14.82,0,1.03-.38.05-.09.03-.16-.06-.21-4.26-2.4-7.07-3.85-8.43-4.36-2.91-1.08-5.66-2.04-8.26-2.88-.27-.09-.27-.16.01-.22,5.08-1.12,10.42-.69,14.97,1.94.9.52,1.93,1.21,3.1,2.08.08.06.19.07.28.01.24-.15.45-.34.62-.56.08-.1.08-.19,0-.28l-8.44-9.54c-.11-.12-.08-.17.08-.16,3.76.34,6.83,1.97,9.19,4.89.9,1.12,1.75,2.47,2.55,4.08.03.06.1.08.16.05.02-.01.05-.03.06-.06,1.33-2.92,3.45-5.7,6.2-7.27,1.2-.68,2.54-1.16,4.03-1.44.51-.1,1.02-.21,1.52-.34h.21Z"/>
  </g>
</svg>